# xmcd
#
# Track frame offsets: 
#        150
#        18973
#        43053
#        54367
#        58753
#        75995
#        91539
#        114026
#        135590
#        153389
#        168165
#        185760
#
# Disc length: 2701 seconds
#
# Revision: 0
# Processed by: cddbd v1.5.2PL0 Copyright (c) Steve Scherf et al.
# Submitted via: ExactAudioCopy v1.3
#
DISCID=840a8b0c
DTITLE=Biscuit Kings - Hot Biscuits Anthology
DYEAR=2019
DGENRE=Blues
TTITLE0=Hot Barbecue
TTITLE1=The Day I Met My Waterloo
TTITLE2=Pickin' Jazz
TTITLE3=Bottom Of The Well
TTITLE4=Whiskey Town
TTITLE5=Hard Times In The Boneyard
TTITLE6=Angel On My Shoulder
TTITLE7=Sweet Cheeks
TTITLE8=Hey Santa Claus
TTITLE9=Song For Levon
TTITLE10=Pig Meat
TTITLE11=Mardi Gras Is Over
EXTD=
EXTT0=
EXTT1=
EXTT2=
EXTT3=
EXTT4=
EXTT5=
EXTT6=
EXTT7=
EXTT8=
EXTT9=
EXTT10=
EXTT11=
PLAYORDER=
